# xmcd
#
# Track frame offsets:
#	150
#	4312
#	22405
#	51640
#
# Disc length: 938
#
# Revision: 1
# Processed by: cddbd v1.5.1PL0 Copyright (c) Steve Scherf et al.
# Submitted via: dBpowerAMP V4.0
# Normalized: r0:TRMNUM
#
DISCID=3703a804
DTITLE=Share the Love Ministries - Lord We Need a Bless N
DYEAR=2002
DGENRE=Gospel
TTITLE0=Intro
TTITLE1=Redeemed
TTITLE2=God of Everything
TTITLE3=Lord We Need a Bless N
EXTD=This is a demo CD/EP release from this NJ based choir turned Gospel group. 
EXTT0=
EXTT1=
EXTT2=
EXTT3=
PLAYORDER=
